<svg width="48" height="51" viewBox="0 0 46 49" fill="none" xmlns="http://www.w3.org/2000/svg">
<path d="M5.09657 8.71658C5.09657 8.71658 5.09135 7.89174 5.10179 7.4204C4.23074 5.29937 1 5.29937 1 3.17835C1.9934 3.17835 3.11397 3.2368 3.98215 3.53185C4.79569 3.80834 5.09135 4.47453 5.09135 4.47453C5.09135 4.47453 6.71667 4.12103 7.71104 4.59236C8.07254 4.98978 7.95963 6.24205 7.95963 6.24205C8.00107 6.55628 8.45682 6.71339 9.3269 6.71339C11.067 6.71339 11.1913 6.24206 11.1913 5.77071C11.1913 5.29937 9.90695 4.74948 9.94838 4.23886C9.98981 3.72824 10.6444 3.10765 11.9371 3.29618C13.2298 3.48472 13.7601 4.3567 13.9259 4.59236C14.0916 5.06371 13.1811 5.0637 13.1811 5.77071C13.9259 6.59556 15.5841 7.38112 15.667 7.53823H19.5202C19.9345 7.14545 20.6389 6.24205 20.1417 5.77071C19.2467 5.01657 17.2819 5.53504 17.2819 5.53504C17.2819 5.53504 17.3574 4.12103 19.1473 4.12103C20.1417 4.12103 20.7622 4.47453 21.2594 4.47453C21.7565 4.47453 23.3734 2 23.3734 2C23.3734 2 24.5428 4.40701 25.1126 4.47453C25.6824 4.54205 26.977 4.00319 28.0957 4.12103C29.4639 4.47453 29.3386 5.53504 29.3386 5.53504C29.3386 5.53504 27.1003 4.7102 26.4798 5.77071C26.0554 6.49617 26.1069 7.18473 27.1013 7.53823C28.5929 7.53823 30.0025 7.53823 30.4583 7.53823C30.4583 7.53823 32.4461 6.59556 32.9442 5.77071C32.0732 5.29937 32.1975 4.12103 32.1975 4.12103C32.4461 3.84608 32.9442 3.17835 33.9386 3.17835C35.1815 3.17835 36.2992 3.76752 35.9264 4.47453C35.628 5.04014 34.801 5.09576 34.6834 5.77071C35.3049 6.83122 38.0404 6.7134 38.0404 5.77071C38.0404 4.82803 38.7861 4.27814 39.159 4.12103C39.159 4.12103 40.3052 4.65311 41.0235 4.47453C41.7878 4.28449 41.3114 3.91217 41.7683 3.53185C42.644 2.80293 43.757 3.06051 45 3.06051C44.0056 5.41721 41.0235 5.77071 41.0235 7.4204C41.0235 7.50023 41.0481 7.95799 41.0563 8.71658M5.09657 8.71658H41.0563M5.09657 8.71658L5.09135 10.0128M41.0563 8.71658C41.0603 9.08206 41.0636 9.51711 41.0664 10.0128M41.0664 10.0128C41.0997 15.8775 41.0564 30.2257 41.0235 38.1753L23.3734 47.9556L4.97749 38.2931L5.09135 10.0128M41.0664 10.0128H5.09135M23.3734 5.29937C22.5839 5.26683 21.7607 5.85531 21.8818 6.59556C21.9892 7.25138 22.6739 7.5653 23.3734 7.53823C24.0331 7.51271 24.5124 7.2138 24.6154 6.59556C24.7331 5.88846 24.1278 5.33047 23.3734 5.29937ZM6.71764 11.4268V36.9969L23.3734 45.9524L38.6618 36.9969V11.4268H6.71764Z" stroke="#25337A"/>
<path fill-rule="evenodd" clip-rule="evenodd" d="M8.08397 15.0497L6.59241 13.481V37.6149L23.2481 46.4237L34.3105 40.2696L31.576 37.6149L32.6947 36.5288L30.4573 34.2361L28.8415 35.8048L25.2369 32.4261L26.4798 31.2194L24.1182 28.806L22.5024 30.3747L19.0221 26.996L20.265 25.6686L18.0277 23.3759L16.5361 24.8239L13.3044 21.5659L14.4231 20.4798L11.9372 17.9458L10.5699 19.2731L7.21389 16.0151L8.08397 15.0497ZM15.7903 30.7367L14.6717 28.444L13.6773 30.7367H10.5699L12.9315 32.6674L12.1858 34.8395L14.6717 33.5121L17.1576 34.8395L16.4118 32.6674L18.5249 30.7367H15.7903ZM21.2594 36.8909L22.1295 34.8395L23.2481 36.8909H25.8584L24.2425 38.7009L25.8584 40.3903L23.2481 40.1489L22.1295 42.0796L21.2594 40.1489L18.5249 40.3903L20.0164 38.7009L18.5249 36.8909H21.2594Z" fill="#25337A"/>
<path d="M31.576 37.6149L34.3105 40.2696L39.1581 37.6149V36.1668L36.4236 33.3914L35.1806 34.5981L32.819 32.3054L33.9376 31.2194L30.4573 27.9613L28.9658 29.4093L26.3556 26.996L27.7228 25.6686L24.2425 22.2899L22.6267 23.8586L20.3893 21.8072L21.3837 20.8418L18.152 17.5838L16.909 18.7905L14.5474 16.6184L15.6661 15.5324L11.8129 11.7916L10.6942 12.8777L9.07834 11.309H6.59241V13.6017L8.08397 15.0497L7.08959 16.0151L10.5699 19.3938L11.9372 18.0664L14.4231 20.4798L13.1801 21.6865L16.5361 24.9446L18.0277 23.4966L20.265 25.6686L18.8978 26.996L22.5024 30.4954L24.1182 28.9267L26.4798 31.2194L25.2369 32.4261L28.8415 35.9255L30.4573 34.3568L32.6947 36.5288L31.576 37.6149Z" fill="#E2DC02"/>
<path fill-rule="evenodd" clip-rule="evenodd" d="M10.6876 12.8701L9.07837 11.309H39.1581V36.1668L36.4349 33.5249L35.197 34.7258L32.7213 32.3241L33.8354 31.2433L30.4932 28.001L28.884 29.5621L26.2845 27.0403L27.6461 25.7193L24.1801 22.3569L22.5709 23.918L20.3428 21.7565L21.3331 20.7958L18.1147 17.6735L16.8768 18.8744L14.5249 16.5928L15.639 15.512L11.8016 11.7893L10.6876 12.8701ZM25.0699 12.8072C25.8158 12.5659 26.2715 13.4106 26.313 14.1346C26.2764 14.1228 26.2393 14.1104 26.2021 14.098C25.8606 13.984 25.5115 13.8675 25.4428 14.1346C25.3186 14.6173 25.4014 15.462 25.6914 16.186L26.8102 16.3067V16.91H27.9288L27.3073 17.8754V18.72H26.313L25.1944 19.2027L25.3186 17.996L24.5728 17.8754V17.1513C24.5728 17.1513 21.9626 16.6687 21.9625 16.91C21.9624 17.0185 21.9876 17.1026 22.0152 17.1953C22.0491 17.3087 22.0868 17.4348 22.0868 17.634C21.2913 17.8271 20.7196 17.1916 20.471 16.7893C20.4296 16.548 20.5456 16.0412 21.3411 15.9446C21.7854 15.8907 22.7414 16.2193 23.5206 16.4871C24.1367 16.6988 24.6422 16.8725 24.6971 16.7893C24.8214 16.6009 23.0811 15.462 22.5839 15.462C22.0868 15.462 20.7198 14.3759 20.4711 14.1346C20.2223 13.8933 20.2224 12.6865 20.3467 12.5659C20.471 12.4452 21.6775 12.5482 22.2112 12.8072C22.7084 13.0486 23.5786 14.2553 23.5784 14.4966C23.5783 14.738 25.0701 16.186 25.1944 16.0653C25.3186 15.9446 24.3241 14.1346 24.3241 14.1346C24.0755 13.5313 24.1998 13.1693 25.0699 12.8072ZM35.1807 20.7212C35.1393 19.9971 34.6836 19.1524 33.9377 19.3938C33.0676 19.7558 32.9433 20.1178 33.1919 20.7212C33.1919 20.7212 34.1864 22.5312 34.0621 22.6519C33.9379 22.7725 32.4461 21.3245 32.4462 21.0832C32.4464 20.8418 31.5762 19.6351 31.079 19.3938C30.5453 19.1348 29.3388 19.0318 29.2145 19.1524C29.0902 19.2731 29.0901 20.4798 29.3388 20.7212C29.5876 20.9625 30.9545 22.0485 31.4517 22.0485C31.9489 22.0485 33.6892 23.1874 33.5649 23.3759C33.51 23.4591 33.0045 23.2854 32.3884 23.0736C31.6092 22.8058 30.6532 22.4773 30.2089 22.5312C29.4134 22.6277 29.2974 23.1345 29.3388 23.3759C29.5874 23.7781 30.1591 24.4136 30.9546 24.2206C30.9546 24.0213 30.9169 23.8952 30.883 23.7818C30.8553 23.6892 30.8302 23.6051 30.8303 23.4965C30.8304 23.2552 33.4406 23.7379 33.4406 23.7379V24.4619L34.1864 24.5826L34.0621 25.7893L35.1807 25.3066H36.1751V24.4619L36.7966 23.4965H35.6779V22.8932L34.5592 22.7725C34.2691 22.0485 34.1864 21.2038 34.3106 20.7212C34.3793 20.4541 34.7284 20.5706 35.0699 20.6845C35.107 20.6969 35.1441 20.7093 35.1807 20.7212Z" fill="#D9000A"/>
</svg>
